<svg id="Layer_1" height="512" viewBox="0 0 128 128" width="512" xmlns="http://www.w3.org/2000/svg" data-name="Layer 1"><path d="m104.709 115h-75.271a9.146 9.146 0 0 1 -9.146-9.146v-52.054l79.634 6.425h4.783z" fill="#ffd92d"/><path d="m26.717 47.372h73.209a0 0 0 0 1 0 0v12.85a0 0 0 0 1 0 0h-73.209a6.425 6.425 0 0 1 -6.425-6.422 6.425 6.425 0 0 1 6.425-6.425z" fill="#537982"/><path d="m94.137 78.982h13.574a0 0 0 0 1 0 0v17.259a0 0 0 0 1 0 0h-13.574a8.629 8.629 0 0 1 -8.629-8.629 8.629 8.629 0 0 1 8.629-8.63z" fill="#3e5959"/><path d="m64.001 54.982 14.316-15.219h-5.899l2-26.763h-20.833l2 26.763h-5.899z" fill="#9bdc05"/><g fill="#5a2b41"><path d="m70.892 113.25h-41.455a7.4 7.4 0 0 1 -7.4-7.4v-45.356a8.12 8.12 0 0 0 4.675 1.479h6.951a1.75 1.75 0 0 0 0-3.5h-6.947a4.676 4.676 0 0 1 0-9.351h29.369l6.641 7.06a1.751 1.751 0 0 0 2.548 0l14.316-15.22a1.75 1.75 0 0 0 -1.275-2.949h-4.015l1.859-24.882a1.75 1.75 0 0 0 -3.49-.262l-2 26.763a1.75 1.75 0 0 0 1.745 1.881h1.85l-10.264 10.915-10.267-10.915h1.85a1.75 1.75 0 0 0 1.745-1.881l-2-26.763a1.75 1.75 0 1 0 -3.49.262l1.862 24.882h-4.015a1.75 1.75 0 0 0 -1.275 2.949l4.383 4.66h-26.077a8.185 8.185 0 0 0 -8.175 8.178v52.056a10.908 10.908 0 0 0 10.9 10.9h41.451a1.75 1.75 0 0 0 0-3.5z"/><path d="m79.375 113.25h-1.125a1.75 1.75 0 0 0 0 3.5h1.125a1.75 1.75 0 0 0 0-3.5z"/><path d="m104.708 101.631a1.749 1.749 0 0 0 -1.75 1.75v9.869h-16.333a1.75 1.75 0 0 0 0 3.5h18.083a1.749 1.749 0 0 0 1.75-1.75v-11.619a1.749 1.749 0 0 0 -1.75-1.75z"/><path d="m41.167 58.473a1.75 1.75 0 0 0 0 3.5h.75a1.75 1.75 0 0 0 0-3.5z"/><path d="m107.709 77.232h-1.251v-17.009a1.749 1.749 0 0 0 -1.75-1.75h-3.034v-11.1a1.749 1.749 0 0 0 -1.75-1.75h-19.424a1.75 1.75 0 0 0 0 3.5h17.674v9.351h-48.488a1.75 1.75 0 1 0 0 3.5h53.272v15.258h-8.823a10.379 10.379 0 0 0 0 20.758h13.574a1.749 1.749 0 0 0 1.75-1.75v-17.258a1.75 1.75 0 0 0 -1.75-1.75zm-1.75 17.258h-11.824a6.879 6.879 0 0 1 0-13.758h11.824z"/><path d="m90.721 87.611a3.73 3.73 0 1 0 3.729-3.73 3.734 3.734 0 0 0 -3.729 3.73zm3.729-.23a.231.231 0 0 1 .231.23c0 .254-.46.254-.46 0a.229.229 0 0 1 .229-.23z"/><path d="m69.162 80.7a1.75 1.75 0 0 0 3.5 0 8.659 8.659 0 0 0 -6.915-8.471v-3.296a1.75 1.75 0 0 0 -3.5 0v3.3a8.645 8.645 0 0 0 0 16.923v10.144a5.138 5.138 0 0 1 -3.4-4.818 1.75 1.75 0 0 0 -3.5 0 8.658 8.658 0 0 0 6.9 8.466v3.3a1.75 1.75 0 0 0 3.5 0v-3.3a8.646 8.646 0 0 0 0-16.933v-10.143a5.137 5.137 0 0 1 3.415 4.828zm-10.29 0a5.139 5.139 0 0 1 3.375-4.812v9.624a5.138 5.138 0 0 1 -3.375-4.812zm10.27 13.79a5.138 5.138 0 0 1 -3.395 4.81v-9.632a5.139 5.139 0 0 1 3.395 4.818z"/></g></svg>